<svg width="150" height="150" viewBox="0 0 150 150" fill="none" xmlns="http://www.w3.org/2000/svg">
  <rect width="150" height="150" rx="16" fill="#124AD1"/>
  <path fill-rule="evenodd" clip-rule="evenodd"
        d="M101.701 107.003C107.369 107.003 111.964 102.408 111.964 96.7397C111.964 91.0715 107.369 86.4766 101.701 86.4766C96.0325 86.4766 91.4375 91.0715 91.4375 96.7397C91.4375 102.408 96.0325 107.003 101.701 107.003ZM101.701 101.301C104.22 101.301 106.262 99.2589 106.262 96.7397C106.262 94.2205 104.22 92.1783 101.701 92.1783C99.1815 92.1783 97.1393 94.2205 97.1393 96.7397C97.1393 99.2589 99.1815 101.301 101.701 101.301Z"
        fill="white"/>
  <path fill-rule="evenodd" clip-rule="evenodd"
        d="M40.1197 42C36.9707 42 34.418 44.5528 34.418 47.7018V91.0351C34.418 94.1841 36.9707 96.7368 40.1197 96.7368H47.0017C48.1747 96.7368 49.067 95.6836 48.8741 94.5265C48.7513 93.7897 49.0721 93.0493 49.6936 92.635L51.1989 91.6314C52.7764 90.5798 54.8315 90.5798 56.409 91.6314L57.9143 92.635C58.5358 93.0493 58.8565 93.7897 58.7337 94.5265C58.5409 95.6836 59.4332 96.7368 60.6062 96.7368H80.032C83.181 96.7368 85.7338 94.1841 85.7338 91.0351V47.7018C85.7338 44.5528 83.181 42 80.032 42H40.1197ZM73.7314 60.7871C75.2901 59.2285 75.2901 56.7014 73.7314 55.1427C72.1727 53.584 69.6456 53.584 68.087 55.1427L55.3833 67.8464L51.9273 64.7046C50.2963 63.2219 47.772 63.3421 46.2893 64.9731C44.8065 66.6042 44.9267 69.1284 46.5577 70.6112L52.8297 76.3129L55.6457 78.8729L58.3367 76.1819L73.7314 60.7871Z"
        fill="white"/>
  <rect x="31" y="91.0352" width="12.5439" height="5.70175" rx="2.85088" fill="white"/>
  <path d="M85.7383 54.543H106.265C109.414 54.543 111.966 57.0957 111.966 60.2447V60.2447H85.7383V54.543Z"
        fill="white"/>
  <path d="M81.1758 59.1055H100.562V86.4739C100.562 92.1421 95.9668 96.737 90.2986 96.737H81.1758V59.1055Z"
        fill="white"/>
  <path d="M100.562 76.2109H118.808V96.7373H114.247C106.689 96.7373 100.562 90.6106 100.562 83.053V76.2109Z"
        fill="white"/>
  <rect x="115.387" y="91.0352" width="6.84211" height="5.70175" rx="2.85088" fill="white"/>
  <path fill-rule="evenodd" clip-rule="evenodd"
        d="M53.8061 105.862C59.4743 105.862 64.0693 101.267 64.0693 95.5991C64.0693 89.9309 59.4743 85.3359 53.8061 85.3359C48.1379 85.3359 43.543 89.9309 43.543 95.5991C43.543 101.267 48.1379 105.862 53.8061 105.862ZM53.8061 100.16C56.3253 100.16 58.3675 98.1183 58.3675 95.5991C58.3675 93.0799 56.3253 91.0377 53.8061 91.0377C51.2869 91.0377 49.2447 93.0799 49.2447 95.5991C49.2447 98.1183 51.2869 100.16 53.8061 100.16Z"
        fill="white"/>
  <rect x="99" y="82" width="6" height="5" fill="white"/>
</svg>
